<svg xmlns="http://www.w3.org/2000/svg" xmlns:xlink="http://www.w3.org/1999/xlink" width="1500" zoomAndPan="magnify" viewBox="0 0 1125 374.999991" height="500" preserveAspectRatio="xMidYMid meet" version="1.0"><defs><g/></defs><g fill="rgb(100%, 55.288696%, 33.329773%)" fill-opacity="0.4"><g transform="translate(38.158276, 177.867231)"><g><path d="M 38.257812 -26.027344 L 38.257812 -139.753906 L 12.226562 -139.753906 L 12.226562 0 L 93.109375 0 L 93.109375 -26.027344 Z M 38.257812 -26.027344 "/></g></g></g><g fill="rgb(100%, 55.288696%, 33.329773%)" fill-opacity="0.4"><g transform="translate(143.490159, 177.867231)"><g><path d="M 77.5625 -141.5 C 38.082031 -141.5 6.113281 -109.53125 6.113281 -70.050781 C 6.113281 -30.570312 38.082031 1.398438 77.5625 1.398438 C 117.042969 1.398438 149.011719 -30.570312 149.011719 -70.050781 C 149.011719 -109.53125 117.042969 -141.5 77.5625 -141.5 Z M 77.5625 -114.769531 C 102.367188 -114.769531 119.835938 -94.683594 119.835938 -70.050781 C 119.835938 -45.417969 102.367188 -25.328125 77.5625 -25.328125 C 52.929688 -25.328125 35.460938 -45.417969 35.460938 -70.050781 C 35.460938 -94.683594 52.929688 -114.769531 77.5625 -114.769531 Z M 77.5625 -114.769531 "/></g></g></g><g fill="rgb(100%, 55.288696%, 33.329773%)" fill-opacity="0.4"><g transform="translate(298.605786, 177.867231)"><g><path d="M 154.25 -81.582031 L 89.09375 -81.582031 L 89.09375 -54.851562 L 123.679688 -54.851562 C 118.265625 -37.558594 103.242188 -24.980469 83.675781 -24.980469 C 59.046875 -24.980469 41.578125 -45.070312 41.578125 -69.703125 C 41.578125 -94.332031 59.046875 -114.421875 83.675781 -114.421875 C 92.410156 -114.421875 100.273438 -111.976562 106.5625 -107.609375 L 126.125 -127.175781 C 114.246094 -135.910156 99.574219 -141.148438 83.675781 -141.148438 C 44.195312 -141.148438 12.226562 -109.179688 12.226562 -69.703125 C 12.226562 -30.222656 44.195312 1.746094 83.675781 1.746094 C 123.15625 1.746094 155.125 -30.222656 155.125 -69.703125 C 155.125 -73.71875 154.773438 -77.738281 154.25 -81.582031 Z M 154.25 -81.582031 "/></g></g></g><g fill="rgb(100%, 55.288696%, 33.329773%)" fill-opacity="0.4"><g transform="translate(465.948978, 177.867231)"><g><path d="M 12.226562 -139.753906 L 38.433594 -139.753906 L 38.433594 -0.523438 L 12.226562 -0.523438 Z M 12.226562 -139.753906 "/></g></g></g><g fill="rgb(100%, 55.288696%, 33.329773%)" fill-opacity="0.4"><g transform="translate(516.60611, 177.867231)"><g><path d="M 95.207031 -139.753906 L 95.207031 -45.417969 L 40.878906 -139.753906 L 12.226562 -139.753906 L 12.226562 0 L 38.433594 0 L 38.433594 -87.519531 L 88.742188 0 L 121.410156 0 L 121.410156 -139.753906 Z M 95.207031 -139.753906 "/></g></g></g><g fill="rgb(100%, 72.158813%, 46.669006%)" fill-opacity="1"><g transform="translate(48.351573, 173.95439)"><g><path d="M 38.257812 -26.027344 L 38.257812 -139.753906 L 12.226562 -139.753906 L 12.226562 0 L 93.109375 0 L 93.109375 -26.027344 Z M 38.257812 -26.027344 "/></g></g></g><g fill="rgb(100%, 72.158813%, 46.669006%)" fill-opacity="1"><g transform="translate(153.683456, 173.95439)"><g><path d="M 77.5625 -141.5 C 38.082031 -141.5 6.113281 -109.53125 6.113281 -70.050781 C 6.113281 -30.570312 38.082031 1.398438 77.5625 1.398438 C 117.042969 1.398438 149.011719 -30.570312 149.011719 -70.050781 C 149.011719 -109.53125 117.042969 -141.5 77.5625 -141.5 Z M 77.5625 -114.769531 C 102.367188 -114.769531 119.835938 -94.683594 119.835938 -70.050781 C 119.835938 -45.417969 102.367188 -25.328125 77.5625 -25.328125 C 52.929688 -25.328125 35.460938 -45.417969 35.460938 -70.050781 C 35.460938 -94.683594 52.929688 -114.769531 77.5625 -114.769531 Z M 77.5625 -114.769531 "/></g></g></g><g fill="rgb(100%, 72.158813%, 46.669006%)" fill-opacity="1"><g transform="translate(308.799083, 173.95439)"><g><path d="M 154.25 -81.582031 L 89.09375 -81.582031 L 89.09375 -54.851562 L 123.679688 -54.851562 C 118.265625 -37.558594 103.242188 -24.980469 83.675781 -24.980469 C 59.046875 -24.980469 41.578125 -45.070312 41.578125 -69.703125 C 41.578125 -94.332031 59.046875 -114.421875 83.675781 -114.421875 C 92.410156 -114.421875 100.273438 -111.976562 106.5625 -107.609375 L 126.125 -127.175781 C 114.246094 -135.910156 99.574219 -141.148438 83.675781 -141.148438 C 44.195312 -141.148438 12.226562 -109.179688 12.226562 -69.703125 C 12.226562 -30.222656 44.195312 1.746094 83.675781 1.746094 C 123.15625 1.746094 155.125 -30.222656 155.125 -69.703125 C 155.125 -73.71875 154.773438 -77.738281 154.25 -81.582031 Z M 154.25 -81.582031 "/></g></g></g><g fill="rgb(100%, 72.158813%, 46.669006%)" fill-opacity="1"><g transform="translate(476.142275, 173.95439)"><g><path d="M 12.226562 -139.753906 L 38.433594 -139.753906 L 38.433594 -0.523438 L 12.226562 -0.523438 Z M 12.226562 -139.753906 "/></g></g></g><g fill="rgb(100%, 72.158813%, 46.669006%)" fill-opacity="1"><g transform="translate(526.799407, 173.95439)"><g><path d="M 95.207031 -139.753906 L 95.207031 -45.417969 L 40.878906 -139.753906 L 12.226562 -139.753906 L 12.226562 0 L 38.433594 0 L 38.433594 -87.519531 L 88.742188 0 L 121.410156 0 L 121.410156 -139.753906 Z M 95.207031 -139.753906 "/></g></g></g><g fill="rgb(100%, 100%, 100%)" fill-opacity="0.4"><g transform="translate(419.587046, 346.9157)"><g><path d="M 98.898438 0 L 127.363281 0 L 84.484375 -145.609375 L 84.484375 -145.972656 L 55.835938 -145.972656 L 12.773438 0 L 41.421875 0 L 52.1875 -36.3125 L 88.132812 -36.3125 Z M 60.214844 -63.5 L 70.25 -97.4375 L 80.101562 -63.5 Z M 60.214844 -63.5 "/></g></g></g><g fill="rgb(100%, 100%, 100%)" fill-opacity="0.4"><g transform="translate(559.717104, 346.9157)"><g><path d="M 60.578125 -145.972656 L 12.773438 -145.972656 L 12.773438 0 L 60.578125 0 C 99.078125 0 126.449219 -32.660156 126.449219 -72.988281 C 126.449219 -113.3125 97.984375 -145.972656 60.578125 -145.972656 Z M 60.578125 -118.785156 C 82.292969 -118.785156 99.261719 -98.714844 99.261719 -72.988281 C 99.261719 -59.847656 95.246094 -47.988281 87.585938 -39.414062 C 82.65625 -33.757812 74.082031 -27.1875 60.578125 -27.1875 L 39.960938 -27.1875 L 39.960938 -118.785156 Z M 60.578125 -118.785156 "/></g></g></g><g fill="rgb(100%, 100%, 100%)" fill-opacity="0.4"><g transform="translate(698.934862, 346.9157)"><g><path d="M 134.296875 -145.972656 L 104.371094 -145.972656 L 73.535156 -72.441406 L 42.878906 -145.972656 L 12.773438 -145.972656 L 12.773438 0 L 40.144531 0 L 40.144531 -80.652344 L 58.570312 -36.675781 L 88.496094 -36.675781 L 107.109375 -81.015625 L 107.109375 0 L 134.296875 0 Z M 134.296875 -145.972656 "/></g></g></g><g fill="rgb(100%, 100%, 100%)" fill-opacity="0.4"><g transform="translate(845.99846, 346.9157)"><g><path d="M 12.773438 -145.972656 L 40.144531 -145.972656 L 40.144531 -0.546875 L 12.773438 -0.546875 Z M 12.773438 -145.972656 "/></g></g></g><g fill="rgb(100%, 100%, 100%)" fill-opacity="0.4"><g transform="translate(898.912138, 346.9157)"><g><path d="M 99.445312 -145.972656 L 99.445312 -47.441406 L 42.699219 -145.972656 L 12.773438 -145.972656 L 12.773438 0 L 40.144531 0 L 40.144531 -91.417969 L 92.695312 0 L 126.816406 0 L 126.816406 -145.972656 Z M 99.445312 -145.972656 "/></g></g></g><g fill="rgb(0%, 0%, 0%)" fill-opacity="1"><g transform="translate(430.234146, 342.828654)"><g><path d="M 98.898438 0 L 127.363281 0 L 84.484375 -145.609375 L 84.484375 -145.972656 L 55.835938 -145.972656 L 12.773438 0 L 41.421875 0 L 52.1875 -36.3125 L 88.132812 -36.3125 Z M 60.214844 -63.5 L 70.25 -97.4375 L 80.101562 -63.5 Z M 60.214844 -63.5 "/></g></g></g><g fill="rgb(0%, 0%, 0%)" fill-opacity="1"><g transform="translate(570.364204, 342.828654)"><g><path d="M 60.578125 -145.972656 L 12.773438 -145.972656 L 12.773438 0 L 60.578125 0 C 99.078125 0 126.449219 -32.660156 126.449219 -72.988281 C 126.449219 -113.3125 97.984375 -145.972656 60.578125 -145.972656 Z M 60.578125 -118.785156 C 82.292969 -118.785156 99.261719 -98.714844 99.261719 -72.988281 C 99.261719 -59.847656 95.246094 -47.988281 87.585938 -39.414062 C 82.65625 -33.757812 74.082031 -27.1875 60.578125 -27.1875 L 39.960938 -27.1875 L 39.960938 -118.785156 Z M 60.578125 -118.785156 "/></g></g></g><g fill="rgb(0%, 0%, 0%)" fill-opacity="1"><g transform="translate(709.581962, 342.828654)"><g><path d="M 134.296875 -145.972656 L 104.371094 -145.972656 L 73.535156 -72.441406 L 42.878906 -145.972656 L 12.773438 -145.972656 L 12.773438 0 L 40.144531 0 L 40.144531 -80.652344 L 58.570312 -36.675781 L 88.496094 -36.675781 L 107.109375 -81.015625 L 107.109375 0 L 134.296875 0 Z M 134.296875 -145.972656 "/></g></g></g><g fill="rgb(0%, 0%, 0%)" fill-opacity="1"><g transform="translate(856.64556, 342.828654)"><g><path d="M 12.773438 -145.972656 L 40.144531 -145.972656 L 40.144531 -0.546875 L 12.773438 -0.546875 Z M 12.773438 -145.972656 "/></g></g></g><g fill="rgb(0%, 0%, 0%)" fill-opacity="1"><g transform="translate(909.559238, 342.828654)"><g><path d="M 99.445312 -145.972656 L 99.445312 -47.441406 L 42.699219 -145.972656 L 12.773438 -145.972656 L 12.773438 0 L 40.144531 0 L 40.144531 -91.417969 L 92.695312 0 L 126.816406 0 L 126.816406 -145.972656 Z M 99.445312 -145.972656 "/></g></g></g></svg>