<svg xmlns="http://www.w3.org/2000/svg" xmlns:xlink="http://www.w3.org/1999/xlink" width="1500" zoomAndPan="magnify" viewBox="0 0 1125 374.999991" height="500" preserveAspectRatio="xMidYMid meet" version="1.0"><defs><g/></defs><g fill="rgb(100%, 55.288696%, 33.329773%)" fill-opacity="0.4"><g transform="translate(74.919992, 177.867231)"><g><path d="M 57.996094 -139.753906 L 12.226562 -139.753906 L 12.226562 0 L 57.996094 0 C 94.855469 0 121.058594 -31.269531 121.058594 -69.875 C 121.058594 -108.484375 93.808594 -139.753906 57.996094 -139.753906 Z M 57.996094 -113.722656 C 78.785156 -113.722656 95.03125 -94.507812 95.03125 -69.875 C 95.03125 -57.296875 91.1875 -45.945312 83.851562 -37.734375 C 79.132812 -32.316406 70.925781 -26.027344 57.996094 -26.027344 L 38.257812 -26.027344 L 38.257812 -113.722656 Z M 57.996094 -113.722656 "/></g></g></g><g fill="rgb(100%, 55.288696%, 33.329773%)" fill-opacity="0.4"><g transform="translate(208.200631, 177.867231)"><g><path d="M 121.410156 -87.34375 C 121.410156 -116.34375 108.132812 -139.753906 72.496094 -139.753906 L 12.226562 -139.753906 L 12.226562 0 L 38.433594 0 L 38.433594 -34.761719 L 72.496094 -34.761719 C 75.640625 -34.761719 78.609375 -34.9375 81.40625 -35.289062 L 93.984375 0 L 121.410156 0 L 105.511719 -44.71875 C 117.042969 -54.328125 121.410156 -69.875 121.410156 -87.34375 Z M 38.433594 -60.96875 L 38.433594 -113.722656 L 72.496094 -113.722656 C 85.421875 -113.722656 88.917969 -109.355469 90.140625 -107.957031 C 93.460938 -103.765625 95.207031 -96.429688 95.207031 -87.34375 C 95.207031 -77.738281 93.460938 -70.398438 90.316406 -66.558594 C 87.34375 -62.714844 81.40625 -60.96875 72.496094 -60.96875 Z M 38.433594 -60.96875 "/></g></g></g><g fill="rgb(100%, 55.288696%, 33.329773%)" fill-opacity="0.4"><g transform="translate(341.830642, 177.867231)"><g><path d="M 92.585938 -139.753906 L 92.585938 -48.390625 C 92.585938 -34.238281 81.230469 -22.882812 67.253906 -22.882812 L 63.761719 -22.882812 C 49.785156 -22.882812 38.433594 -34.238281 38.433594 -48.390625 L 38.433594 -139.753906 L 12.226562 -139.753906 L 12.226562 -48.390625 C 12.226562 -20.089844 35.460938 3.144531 63.761719 3.144531 L 67.253906 3.144531 C 95.554688 3.144531 118.613281 -20.089844 118.613281 -48.390625 L 118.613281 -139.753906 Z M 92.585938 -139.753906 "/></g></g></g><g fill="rgb(100%, 55.288696%, 33.329773%)" fill-opacity="0.4"><g transform="translate(472.665786, 177.867231)"><g><path d="M 128.570312 -139.753906 L 99.921875 -139.753906 L 70.398438 -69.351562 L 41.050781 -139.753906 L 12.226562 -139.753906 L 12.226562 0 L 38.433594 0 L 38.433594 -77.214844 L 56.074219 -35.113281 L 84.726562 -35.113281 L 102.542969 -77.5625 L 102.542969 0 L 128.570312 0 Z M 128.570312 -139.753906 "/></g></g></g><g fill="rgb(100%, 72.158813%, 46.669006%)" fill-opacity="1"><g transform="translate(85.113289, 173.95439)"><g><path d="M 57.996094 -139.753906 L 12.226562 -139.753906 L 12.226562 0 L 57.996094 0 C 94.855469 0 121.058594 -31.269531 121.058594 -69.875 C 121.058594 -108.484375 93.808594 -139.753906 57.996094 -139.753906 Z M 57.996094 -113.722656 C 78.785156 -113.722656 95.03125 -94.507812 95.03125 -69.875 C 95.03125 -57.296875 91.1875 -45.945312 83.851562 -37.734375 C 79.132812 -32.316406 70.925781 -26.027344 57.996094 -26.027344 L 38.257812 -26.027344 L 38.257812 -113.722656 Z M 57.996094 -113.722656 "/></g></g></g><g fill="rgb(100%, 72.158813%, 46.669006%)" fill-opacity="1"><g transform="translate(218.393928, 173.95439)"><g><path d="M 121.410156 -87.34375 C 121.410156 -116.34375 108.132812 -139.753906 72.496094 -139.753906 L 12.226562 -139.753906 L 12.226562 0 L 38.433594 0 L 38.433594 -34.761719 L 72.496094 -34.761719 C 75.640625 -34.761719 78.609375 -34.9375 81.40625 -35.289062 L 93.984375 0 L 121.410156 0 L 105.511719 -44.71875 C 117.042969 -54.328125 121.410156 -69.875 121.410156 -87.34375 Z M 38.433594 -60.96875 L 38.433594 -113.722656 L 72.496094 -113.722656 C 85.421875 -113.722656 88.917969 -109.355469 90.140625 -107.957031 C 93.460938 -103.765625 95.207031 -96.429688 95.207031 -87.34375 C 95.207031 -77.738281 93.460938 -70.398438 90.316406 -66.558594 C 87.34375 -62.714844 81.40625 -60.96875 72.496094 -60.96875 Z M 38.433594 -60.96875 "/></g></g></g><g fill="rgb(100%, 72.158813%, 46.669006%)" fill-opacity="1"><g transform="translate(352.023939, 173.95439)"><g><path d="M 92.585938 -139.753906 L 92.585938 -48.390625 C 92.585938 -34.238281 81.230469 -22.882812 67.253906 -22.882812 L 63.761719 -22.882812 C 49.785156 -22.882812 38.433594 -34.238281 38.433594 -48.390625 L 38.433594 -139.753906 L 12.226562 -139.753906 L 12.226562 -48.390625 C 12.226562 -20.089844 35.460938 3.144531 63.761719 3.144531 L 67.253906 3.144531 C 95.554688 3.144531 118.613281 -20.089844 118.613281 -48.390625 L 118.613281 -139.753906 Z M 92.585938 -139.753906 "/></g></g></g><g fill="rgb(100%, 72.158813%, 46.669006%)" fill-opacity="1"><g transform="translate(482.859083, 173.95439)"><g><path d="M 128.570312 -139.753906 L 99.921875 -139.753906 L 70.398438 -69.351562 L 41.050781 -139.753906 L 12.226562 -139.753906 L 12.226562 0 L 38.433594 0 L 38.433594 -77.214844 L 56.074219 -35.113281 L 84.726562 -35.113281 L 102.542969 -77.5625 L 102.542969 0 L 128.570312 0 Z M 128.570312 -139.753906 "/></g></g></g><g fill="rgb(100%, 100%, 100%)" fill-opacity="0.4"><g transform="translate(464.563605, 346.9157)"><g><path d="M 39.960938 -27.1875 L 39.960938 -145.972656 L 12.773438 -145.972656 L 12.773438 0 L 97.253906 0 L 97.253906 -27.1875 Z M 39.960938 -27.1875 "/></g></g></g><g fill="rgb(100%, 100%, 100%)" fill-opacity="0.4"><g transform="translate(574.5876, 346.9157)"><g><path d="M 98.898438 0 L 127.363281 0 L 84.484375 -145.609375 L 84.484375 -145.972656 L 55.835938 -145.972656 L 12.773438 0 L 41.421875 0 L 52.1875 -36.3125 L 88.132812 -36.3125 Z M 60.214844 -63.5 L 70.25 -97.4375 L 80.101562 -63.5 Z M 60.214844 -63.5 "/></g></g></g><g fill="rgb(100%, 100%, 100%)" fill-opacity="0.4"><g transform="translate(714.717658, 346.9157)"><g><path d="M 99.445312 -145.972656 L 99.445312 -47.441406 L 42.699219 -145.972656 L 12.773438 -145.972656 L 12.773438 0 L 40.144531 0 L 40.144531 -91.417969 L 92.695312 0 L 126.816406 0 L 126.816406 -145.972656 Z M 99.445312 -145.972656 "/></g></g></g><g fill="rgb(100%, 100%, 100%)" fill-opacity="0.4"><g transform="translate(854.300321, 346.9157)"><g><path d="M 60.578125 -145.972656 L 12.773438 -145.972656 L 12.773438 0 L 60.578125 0 C 99.078125 0 126.449219 -32.660156 126.449219 -72.988281 C 126.449219 -113.3125 97.984375 -145.972656 60.578125 -145.972656 Z M 60.578125 -118.785156 C 82.292969 -118.785156 99.261719 -98.714844 99.261719 -72.988281 C 99.261719 -59.847656 95.246094 -47.988281 87.585938 -39.414062 C 82.65625 -33.757812 74.082031 -27.1875 60.578125 -27.1875 L 39.960938 -27.1875 L 39.960938 -118.785156 Z M 60.578125 -118.785156 "/></g></g></g><g fill="rgb(0%, 0%, 0%)" fill-opacity="1"><g transform="translate(475.210705, 342.828654)"><g><path d="M 39.960938 -27.1875 L 39.960938 -145.972656 L 12.773438 -145.972656 L 12.773438 0 L 97.253906 0 L 97.253906 -27.1875 Z M 39.960938 -27.1875 "/></g></g></g><g fill="rgb(0%, 0%, 0%)" fill-opacity="1"><g transform="translate(585.2347, 342.828654)"><g><path d="M 98.898438 0 L 127.363281 0 L 84.484375 -145.609375 L 84.484375 -145.972656 L 55.835938 -145.972656 L 12.773438 0 L 41.421875 0 L 52.1875 -36.3125 L 88.132812 -36.3125 Z M 60.214844 -63.5 L 70.25 -97.4375 L 80.101562 -63.5 Z M 60.214844 -63.5 "/></g></g></g><g fill="rgb(0%, 0%, 0%)" fill-opacity="1"><g transform="translate(725.364758, 342.828654)"><g><path d="M 99.445312 -145.972656 L 99.445312 -47.441406 L 42.699219 -145.972656 L 12.773438 -145.972656 L 12.773438 0 L 40.144531 0 L 40.144531 -91.417969 L 92.695312 0 L 126.816406 0 L 126.816406 -145.972656 Z M 99.445312 -145.972656 "/></g></g></g><g fill="rgb(0%, 0%, 0%)" fill-opacity="1"><g transform="translate(864.947421, 342.828654)"><g><path d="M 60.578125 -145.972656 L 12.773438 -145.972656 L 12.773438 0 L 60.578125 0 C 99.078125 0 126.449219 -32.660156 126.449219 -72.988281 C 126.449219 -113.3125 97.984375 -145.972656 60.578125 -145.972656 Z M 60.578125 -118.785156 C 82.292969 -118.785156 99.261719 -98.714844 99.261719 -72.988281 C 99.261719 -59.847656 95.246094 -47.988281 87.585938 -39.414062 C 82.65625 -33.757812 74.082031 -27.1875 60.578125 -27.1875 L 39.960938 -27.1875 L 39.960938 -118.785156 Z M 60.578125 -118.785156 "/></g></g></g></svg>