<svg xmlns="http://www.w3.org/2000/svg" xmlns:xlink="http://www.w3.org/1999/xlink" width="1500" zoomAndPan="magnify" viewBox="0 0 1125 374.999991" height="500" preserveAspectRatio="xMidYMid meet" version="1.0"><defs><g/></defs><g fill="rgb(100%, 55.288696%, 33.329773%)" fill-opacity="0.4"><g transform="translate(38.158276, 177.867231)"><g><path d="M 38.257812 -26.027344 L 38.257812 -139.753906 L 12.226562 -139.753906 L 12.226562 0 L 93.109375 0 L 93.109375 -26.027344 Z M 38.257812 -26.027344 "/></g></g></g><g fill="rgb(100%, 55.288696%, 33.329773%)" fill-opacity="0.4"><g transform="translate(143.490159, 177.867231)"><g><path d="M 77.5625 -141.5 C 38.082031 -141.5 6.113281 -109.53125 6.113281 -70.050781 C 6.113281 -30.570312 38.082031 1.398438 77.5625 1.398438 C 117.042969 1.398438 149.011719 -30.570312 149.011719 -70.050781 C 149.011719 -109.53125 117.042969 -141.5 77.5625 -141.5 Z M 77.5625 -114.769531 C 102.367188 -114.769531 119.835938 -94.683594 119.835938 -70.050781 C 119.835938 -45.417969 102.367188 -25.328125 77.5625 -25.328125 C 52.929688 -25.328125 35.460938 -45.417969 35.460938 -70.050781 C 35.460938 -94.683594 52.929688 -114.769531 77.5625 -114.769531 Z M 77.5625 -114.769531 "/></g></g></g><g fill="rgb(100%, 55.288696%, 33.329773%)" fill-opacity="0.4"><g transform="translate(298.605786, 177.867231)"><g><path d="M 154.25 -81.582031 L 89.09375 -81.582031 L 89.09375 -54.851562 L 123.679688 -54.851562 C 118.265625 -37.558594 103.242188 -24.980469 83.675781 -24.980469 C 59.046875 -24.980469 41.578125 -45.070312 41.578125 -69.703125 C 41.578125 -94.332031 59.046875 -114.421875 83.675781 -114.421875 C 92.410156 -114.421875 100.273438 -111.976562 106.5625 -107.609375 L 126.125 -127.175781 C 114.246094 -135.910156 99.574219 -141.148438 83.675781 -141.148438 C 44.195312 -141.148438 12.226562 -109.179688 12.226562 -69.703125 C 12.226562 -30.222656 44.195312 1.746094 83.675781 1.746094 C 123.15625 1.746094 155.125 -30.222656 155.125 -69.703125 C 155.125 -73.71875 154.773438 -77.738281 154.25 -81.582031 Z M 154.25 -81.582031 "/></g></g></g><g fill="rgb(100%, 55.288696%, 33.329773%)" fill-opacity="0.4"><g transform="translate(465.948978, 177.867231)"><g><path d="M 12.226562 -139.753906 L 38.433594 -139.753906 L 38.433594 -0.523438 L 12.226562 -0.523438 Z M 12.226562 -139.753906 "/></g></g></g><g fill="rgb(100%, 55.288696%, 33.329773%)" fill-opacity="0.4"><g transform="translate(516.60611, 177.867231)"><g><path d="M 95.207031 -139.753906 L 95.207031 -45.417969 L 40.878906 -139.753906 L 12.226562 -139.753906 L 12.226562 0 L 38.433594 0 L 38.433594 -87.519531 L 88.742188 0 L 121.410156 0 L 121.410156 -139.753906 Z M 95.207031 -139.753906 "/></g></g></g><g fill="rgb(100%, 72.158813%, 46.669006%)" fill-opacity="1"><g transform="translate(48.351573, 173.95439)"><g><path d="M 38.257812 -26.027344 L 38.257812 -139.753906 L 12.226562 -139.753906 L 12.226562 0 L 93.109375 0 L 93.109375 -26.027344 Z M 38.257812 -26.027344 "/></g></g></g><g fill="rgb(100%, 72.158813%, 46.669006%)" fill-opacity="1"><g transform="translate(153.683456, 173.95439)"><g><path d="M 77.5625 -141.5 C 38.082031 -141.5 6.113281 -109.53125 6.113281 -70.050781 C 6.113281 -30.570312 38.082031 1.398438 77.5625 1.398438 C 117.042969 1.398438 149.011719 -30.570312 149.011719 -70.050781 C 149.011719 -109.53125 117.042969 -141.5 77.5625 -141.5 Z M 77.5625 -114.769531 C 102.367188 -114.769531 119.835938 -94.683594 119.835938 -70.050781 C 119.835938 -45.417969 102.367188 -25.328125 77.5625 -25.328125 C 52.929688 -25.328125 35.460938 -45.417969 35.460938 -70.050781 C 35.460938 -94.683594 52.929688 -114.769531 77.5625 -114.769531 Z M 77.5625 -114.769531 "/></g></g></g><g fill="rgb(100%, 72.158813%, 46.669006%)" fill-opacity="1"><g transform="translate(308.799083, 173.95439)"><g><path d="M 154.25 -81.582031 L 89.09375 -81.582031 L 89.09375 -54.851562 L 123.679688 -54.851562 C 118.265625 -37.558594 103.242188 -24.980469 83.675781 -24.980469 C 59.046875 -24.980469 41.578125 -45.070312 41.578125 -69.703125 C 41.578125 -94.332031 59.046875 -114.421875 83.675781 -114.421875 C 92.410156 -114.421875 100.273438 -111.976562 106.5625 -107.609375 L 126.125 -127.175781 C 114.246094 -135.910156 99.574219 -141.148438 83.675781 -141.148438 C 44.195312 -141.148438 12.226562 -109.179688 12.226562 -69.703125 C 12.226562 -30.222656 44.195312 1.746094 83.675781 1.746094 C 123.15625 1.746094 155.125 -30.222656 155.125 -69.703125 C 155.125 -73.71875 154.773438 -77.738281 154.25 -81.582031 Z M 154.25 -81.582031 "/></g></g></g><g fill="rgb(100%, 72.158813%, 46.669006%)" fill-opacity="1"><g transform="translate(476.142275, 173.95439)"><g><path d="M 12.226562 -139.753906 L 38.433594 -139.753906 L 38.433594 -0.523438 L 12.226562 -0.523438 Z M 12.226562 -139.753906 "/></g></g></g><g fill="rgb(100%, 72.158813%, 46.669006%)" fill-opacity="1"><g transform="translate(526.799407, 173.95439)"><g><path d="M 95.207031 -139.753906 L 95.207031 -45.417969 L 40.878906 -139.753906 L 12.226562 -139.753906 L 12.226562 0 L 38.433594 0 L 38.433594 -87.519531 L 88.742188 0 L 121.410156 0 L 121.410156 -139.753906 Z M 95.207031 -139.753906 "/></g></g></g><g fill="rgb(100%, 100%, 100%)" fill-opacity="0.4"><g transform="translate(465.840949, 346.9157)"><g><path d="M 96.707031 -145.972656 L 96.707031 -50.542969 C 96.707031 -35.761719 84.847656 -23.902344 70.25 -23.902344 L 66.601562 -23.902344 C 52.003906 -23.902344 40.144531 -35.761719 40.144531 -50.542969 L 40.144531 -145.972656 L 12.773438 -145.972656 L 12.773438 -50.542969 C 12.773438 -20.984375 37.039062 3.285156 66.601562 3.285156 L 70.25 3.285156 C 99.808594 3.285156 123.894531 -20.984375 123.894531 -50.542969 L 123.894531 -145.972656 Z M 96.707031 -145.972656 "/></g></g></g><g fill="rgb(100%, 100%, 100%)" fill-opacity="0.4"><g transform="translate(602.504245, 346.9157)"><g><path d="M 73.351562 1.824219 L 76.636719 1.824219 C 108.019531 1.640625 125.902344 -18.792969 127.179688 -39.046875 C 128.640625 -60.214844 112.582031 -83.933594 73.898438 -88.863281 L 73.535156 -88.863281 C 59.484375 -90.503906 44.886719 -97.4375 45.617188 -107.65625 C 46.164062 -114.953125 57.113281 -121.707031 77 -120.792969 L 77.546875 -120.792969 C 88.496094 -120.792969 101.632812 -115.5 108.386719 -110.574219 L 124.078125 -132.472656 C 113.675781 -139.953125 95.429688 -147.617188 77.914062 -147.617188 C 39.230469 -149.625 20.4375 -129.917969 18.792969 -109.84375 C 17.882812 -98.167969 22.808594 -86.671875 32.296875 -77.914062 C 41.601562 -69.335938 54.921875 -63.863281 70.613281 -62.222656 C 91.964844 -59.300781 100.90625 -49.449219 100.355469 -40.871094 C 99.808594 -33.027344 91.417969 -25.179688 76.269531 -25.179688 L 75.359375 -25.179688 C 75.175781 -25.179688 55.289062 -24.085938 43.0625 -34.121094 C 39.960938 -36.492188 37.40625 -39.414062 35.035156 -42.878906 L 12.773438 -27.734375 C 16.421875 -22.261719 20.984375 -17.335938 26.09375 -13.136719 C 42.699219 0.363281 64.59375 1.824219 73.351562 1.824219 Z M 73.351562 1.824219 "/></g></g></g><g fill="rgb(100%, 100%, 100%)" fill-opacity="0.4"><g transform="translate(742.451836, 346.9157)"><g><path d="M 97.4375 -118.96875 L 97.4375 -146.15625 L 12.773438 -146.15625 L 12.773438 0 L 97.4375 0 L 97.4375 -27.1875 L 40.144531 -27.1875 L 40.144531 -59.667969 L 74.265625 -59.667969 L 74.265625 -86.855469 L 40.144531 -86.855469 L 40.144531 -118.96875 Z M 97.4375 -118.96875 "/></g></g></g><g fill="rgb(100%, 100%, 100%)" fill-opacity="0.4"><g transform="translate(852.658272, 346.9157)"><g><path d="M 126.816406 -91.234375 C 126.816406 -121.523438 112.949219 -145.972656 75.722656 -145.972656 L 12.773438 -145.972656 L 12.773438 0 L 40.144531 0 L 40.144531 -36.3125 L 75.722656 -36.3125 C 79.007812 -36.3125 82.109375 -36.492188 85.03125 -36.859375 L 98.167969 0 L 126.816406 0 L 110.210938 -46.710938 C 122.253906 -56.746094 126.816406 -72.988281 126.816406 -91.234375 Z M 40.144531 -63.679688 L 40.144531 -118.785156 L 75.722656 -118.785156 C 89.226562 -118.785156 92.875 -114.226562 94.152344 -112.765625 C 97.621094 -108.386719 99.445312 -100.722656 99.445312 -91.234375 C 99.445312 -81.199219 97.621094 -73.535156 94.335938 -69.519531 C 91.234375 -65.503906 85.03125 -63.679688 75.722656 -63.679688 Z M 40.144531 -63.679688 "/></g></g></g><g fill="rgb(0%, 0%, 0%)" fill-opacity="1"><g transform="translate(476.488049, 342.828654)"><g><path d="M 96.707031 -145.972656 L 96.707031 -50.542969 C 96.707031 -35.761719 84.847656 -23.902344 70.25 -23.902344 L 66.601562 -23.902344 C 52.003906 -23.902344 40.144531 -35.761719 40.144531 -50.542969 L 40.144531 -145.972656 L 12.773438 -145.972656 L 12.773438 -50.542969 C 12.773438 -20.984375 37.039062 3.285156 66.601562 3.285156 L 70.25 3.285156 C 99.808594 3.285156 123.894531 -20.984375 123.894531 -50.542969 L 123.894531 -145.972656 Z M 96.707031 -145.972656 "/></g></g></g><g fill="rgb(0%, 0%, 0%)" fill-opacity="1"><g transform="translate(613.151345, 342.828654)"><g><path d="M 73.351562 1.824219 L 76.636719 1.824219 C 108.019531 1.640625 125.902344 -18.792969 127.179688 -39.046875 C 128.640625 -60.214844 112.582031 -83.933594 73.898438 -88.863281 L 73.535156 -88.863281 C 59.484375 -90.503906 44.886719 -97.4375 45.617188 -107.65625 C 46.164062 -114.953125 57.113281 -121.707031 77 -120.792969 L 77.546875 -120.792969 C 88.496094 -120.792969 101.632812 -115.5 108.386719 -110.574219 L 124.078125 -132.472656 C 113.675781 -139.953125 95.429688 -147.617188 77.914062 -147.617188 C 39.230469 -149.625 20.4375 -129.917969 18.792969 -109.84375 C 17.882812 -98.167969 22.808594 -86.671875 32.296875 -77.914062 C 41.601562 -69.335938 54.921875 -63.863281 70.613281 -62.222656 C 91.964844 -59.300781 100.90625 -49.449219 100.355469 -40.871094 C 99.808594 -33.027344 91.417969 -25.179688 76.269531 -25.179688 L 75.359375 -25.179688 C 75.175781 -25.179688 55.289062 -24.085938 43.0625 -34.121094 C 39.960938 -36.492188 37.40625 -39.414062 35.035156 -42.878906 L 12.773438 -27.734375 C 16.421875 -22.261719 20.984375 -17.335938 26.09375 -13.136719 C 42.699219 0.363281 64.59375 1.824219 73.351562 1.824219 Z M 73.351562 1.824219 "/></g></g></g><g fill="rgb(0%, 0%, 0%)" fill-opacity="1"><g transform="translate(753.098936, 342.828654)"><g><path d="M 97.4375 -118.96875 L 97.4375 -146.15625 L 12.773438 -146.15625 L 12.773438 0 L 97.4375 0 L 97.4375 -27.1875 L 40.144531 -27.1875 L 40.144531 -59.667969 L 74.265625 -59.667969 L 74.265625 -86.855469 L 40.144531 -86.855469 L 40.144531 -118.96875 Z M 97.4375 -118.96875 "/></g></g></g><g fill="rgb(0%, 0%, 0%)" fill-opacity="1"><g transform="translate(863.305372, 342.828654)"><g><path d="M 126.816406 -91.234375 C 126.816406 -121.523438 112.949219 -145.972656 75.722656 -145.972656 L 12.773438 -145.972656 L 12.773438 0 L 40.144531 0 L 40.144531 -36.3125 L 75.722656 -36.3125 C 79.007812 -36.3125 82.109375 -36.492188 85.03125 -36.859375 L 98.167969 0 L 126.816406 0 L 110.210938 -46.710938 C 122.253906 -56.746094 126.816406 -72.988281 126.816406 -91.234375 Z M 40.144531 -63.679688 L 40.144531 -118.785156 L 75.722656 -118.785156 C 89.226562 -118.785156 92.875 -114.226562 94.152344 -112.765625 C 97.621094 -108.386719 99.445312 -100.722656 99.445312 -91.234375 C 99.445312 -81.199219 97.621094 -73.535156 94.335938 -69.519531 C 91.234375 -65.503906 85.03125 -63.679688 75.722656 -63.679688 Z M 40.144531 -63.679688 "/></g></g></g></svg>